<svg width="512" height="512" viewBox="0 0 512 512" fill="none" xmlns="http://www.w3.org/2000/svg">
<path fill-rule="evenodd" clip-rule="evenodd" d="M194.045 190.128C194.089 182.077 195.732 174.114 198.88 166.704C202.028 159.293 206.617 152.582 212.382 146.96C218.146 141.339 224.97 136.919 232.458 133.959C239.945 130.998 247.946 129.555 255.996 129.713C267.866 130.048 279.375 133.875 289.083 140.714C298.791 147.553 306.269 157.102 310.581 168.166C314.893 179.231 315.848 191.321 313.328 202.926C310.808 214.531 304.923 225.135 296.41 233.415C287.897 241.694 277.133 247.281 265.462 249.477C253.792 251.673 241.733 250.381 230.792 245.762C219.852 241.144 210.516 233.404 203.949 223.509C197.383 213.614 193.879 202.003 193.874 190.128H194.045Z" fill="url(#paint0_linear_5_78)"/>
<path fill-rule="evenodd" clip-rule="evenodd" d="M255.228 0.00811885C212.319 -0.363212 170.265 12.0107 134.394 35.5621C98.5241 59.1135 70.4517 92.7824 53.7342 132.303C37.0166 171.824 32.4063 215.417 40.4872 257.56C48.5682 299.703 68.9768 338.5 99.1272 369.033C129.278 399.567 167.813 420.464 209.851 429.076C251.889 437.689 295.537 433.629 335.265 417.412C374.994 401.195 409.015 373.55 433.017 337.98C457.02 302.41 469.924 260.515 470.094 217.605C470.094 99.9319 374.181 0.00811885 255.228 0.00811885ZM263.761 374.53C261.525 376.475 258.661 377.546 255.697 377.546C252.734 377.546 249.87 376.475 247.634 374.53C220.754 354.392 131.923 275.118 131.923 190.554C133.113 158.534 146.669 128.222 169.743 105.989C192.818 83.7558 223.612 71.3338 255.655 71.3338C287.697 71.3338 318.492 83.7558 341.566 105.989C364.64 128.222 378.197 158.534 379.386 190.554C379.557 275.204 290.726 353.112 263.847 374.53H263.761Z" fill="url(#paint1_linear_5_78)"/>
<path fill-rule="evenodd" clip-rule="evenodd" d="M51.1992 377.261H40.362C29.6565 377.306 19.4035 381.584 11.8414 389.162C4.27936 396.74 0.0224435 407.002 1.00316e-10 417.708V471.553C-2.38399e-05 482.265 4.24967 492.54 11.8166 500.123C19.3835 507.706 29.6495 511.977 40.362 512H471.63C482.336 511.955 492.589 507.676 500.151 500.098C507.713 492.52 511.97 482.258 511.992 471.553V417.708C511.992 406.996 507.742 396.721 500.175 389.138C492.609 381.555 482.342 377.283 471.63 377.261H458.489C434.45 408.379 403.598 433.574 368.303 450.908C333.008 468.243 294.209 477.256 254.887 477.256C215.565 477.256 176.766 468.243 141.47 450.908C106.175 433.574 75.3233 408.379 51.2845 377.261H51.1992Z" fill="url(#paint2_linear_5_78)"/>
<defs>
<linearGradient id="paint0_linear_5_78" x1="255.996" y1="0.00831882" x2="255.996" y2="512" gradientUnits="userSpaceOnUse">
<stop stop-color="#F8EC20"/>
<stop offset="1" stop-color="#A79F1E"/>
</linearGradient>
<linearGradient id="paint1_linear_5_78" x1="255.996" y1="0.00811885" x2="255.996" y2="512" gradientUnits="userSpaceOnUse">
<stop stop-color="#F8EC20"/>
<stop offset="1" stop-color="#A79F1E"/>
</linearGradient>
<linearGradient id="paint2_linear_5_78" x1="255.996" y1="0.00797092" x2="255.996" y2="512" gradientUnits="userSpaceOnUse">
<stop stop-color="#F8EC20"/>
<stop offset="1" stop-color="#A79F1E"/>
</linearGradient>
</defs>
</svg>
